<svg width="8" height="9" viewBox="0 0 8 9" fill="none" xmlns="http://www.w3.org/2000/svg">
<path d="M6.36799 2.48497C6.40211 2.45015 6.44284 2.42249 6.48778 2.40361C6.53273 2.38473 6.58099 2.375 6.62974 2.375C6.67849 2.375 6.72675 2.38473 6.7717 2.40361C6.81664 2.42249 6.85737 2.45015 6.89149 2.48497C7.03449 2.62947 7.03649 2.86297 6.89649 3.00997L3.93999 6.50497C3.90642 6.54183 3.86569 6.57145 3.82028 6.59203C3.77487 6.61261 3.72574 6.6237 3.67589 6.62464C3.62605 6.62557 3.57654 6.61633 3.53039 6.59747C3.48424 6.57862 3.44242 6.55054 3.40749 6.51497L1.60849 4.69197C1.53911 4.62121 1.50024 4.52606 1.50024 4.42697C1.50024 4.32787 1.53911 4.23272 1.60849 4.16197C1.64261 4.12715 1.68334 4.09949 1.72828 4.08061C1.77323 4.06173 1.82149 4.052 1.87024 4.052C1.91899 4.052 1.96725 4.06173 2.0122 4.08061C2.05714 4.09949 2.09787 4.12715 2.13199 4.16197L3.65799 5.70847L6.35799 2.49597C6.3611 2.4921 6.36444 2.48843 6.36799 2.48497Z" fill="white"/>
</svg>
