<svg width="16" height="15" viewBox="0 0 16 15" fill="none" xmlns="http://www.w3.org/2000/svg">
<path d="M14.9248 2.16537V6.16537M14.9248 6.16537H10.9248M14.9248 6.16537L11.8381 3.25871C10.9185 2.33853 9.72475 1.74216 8.43673 1.55947C7.14871 1.37677 5.83621 1.61765 4.697 2.2458C3.55779 2.87395 2.6536 3.85534 2.12067 5.04208C1.58775 6.22883 1.45497 7.55663 1.74234 8.8254C2.02971 10.0942 2.72167 11.2352 3.71393 12.0765C4.7062 12.9178 5.94502 13.4138 7.24371 13.4898C8.5424 13.5657 9.8306 13.2176 10.9142 12.4977C11.9978 11.7778 12.8181 10.7253 13.2514 9.4987" stroke="#111827" stroke-width="2" stroke-linecap="round" stroke-linejoin="round"/>
</svg>
